<?xml version="1.0" encoding="iso-8859-1"?>
<!-- Generator: Adobe Illustrator 19.0.0, SVG Export Plug-In . SVG Version: 6.00 Build 0)  -->
<svg version="1.1" id="Capa_1" xmlns="http://www.w3.org/2000/svg" xmlns:xlink="http://www.w3.org/1999/xlink" x="0px" y="0px"
	 viewBox="0 0 512 512" style="enable-background:new 0 0 512 512;" xml:space="preserve">
<g>
	<g>
		<g>
			<path d="M138.667,64H96c-5.896,0-10.667,4.771-10.667,10.667v42.667C85.333,123.229,90.104,128,96,128h42.667
				c5.896,0,10.667-4.771,10.667-10.667V74.667C149.333,68.771,144.563,64,138.667,64z M128,106.667h-21.333V85.333H128V106.667z"/>
			<path d="M138.667,149.333H96c-5.896,0-10.667,4.771-10.667,10.667v42.667c0,5.896,4.771,10.667,10.667,10.667h42.667
				c5.896,0,10.667-4.771,10.667-10.667V160C149.333,154.104,144.563,149.333,138.667,149.333z M128,192h-21.333v-21.333H128V192z"
				/>
			<path d="M138.667,234.667H96c-5.896,0-10.667,4.771-10.667,10.667V288c0,5.896,4.771,10.667,10.667,10.667h42.667
				c5.896,0,10.667-4.771,10.667-10.667v-42.667C149.333,239.438,144.563,234.667,138.667,234.667z M128,277.333h-21.333V256H128
				V277.333z"/>
			<path d="M181.333,128H224c5.896,0,10.667-4.771,10.667-10.667V74.667C234.667,68.771,229.896,64,224,64h-42.667
				c-5.896,0-10.667,4.771-10.667,10.667v42.667C170.667,123.229,175.438,128,181.333,128z M192,85.333h21.333v21.333H192V85.333z"
				/>
			<path d="M181.333,213.333H224c5.896,0,10.667-4.771,10.667-10.667V160c0-5.896-4.771-10.667-10.667-10.667h-42.667
				c-5.896,0-10.667,4.771-10.667,10.667v42.667C170.667,208.563,175.438,213.333,181.333,213.333z M192,170.667h21.333V192H192
				V170.667z"/>
			<path d="M181.333,298.667H224c5.896,0,10.667-4.771,10.667-10.667v-42.667c0-5.896-4.771-10.667-10.667-10.667h-42.667
				c-5.896,0-10.667,4.771-10.667,10.667V288C170.667,293.896,175.438,298.667,181.333,298.667z M192,256h21.333v21.333H192V256z"/>
			<path d="M266.667,128h42.667c5.896,0,10.667-4.771,10.667-10.667V74.667C320,68.771,315.229,64,309.333,64h-42.667
				C260.771,64,256,68.771,256,74.667v42.667C256,123.229,260.771,128,266.667,128z M277.333,85.333h21.333v21.333h-21.333V85.333z"
				/>
			<path d="M266.667,213.333h42.667c5.896,0,10.667-4.771,10.667-10.667V160c0-5.896-4.771-10.667-10.667-10.667h-42.667
				c-5.896,0-10.667,4.771-10.667,10.667v42.667C256,208.563,260.771,213.333,266.667,213.333z M277.333,170.667h21.333V192h-21.333
				V170.667z"/>
			<path d="M266.667,298.667h42.667c5.896,0,10.667-4.771,10.667-10.667v-42.667c0-5.896-4.771-10.667-10.667-10.667h-42.667
				c-5.896,0-10.667,4.771-10.667,10.667V288C256,293.896,260.771,298.667,266.667,298.667z M277.333,256h21.333v21.333h-21.333V256
				z"/>
			<path d="M448,341.333h-64.736c0.246-3.556,0.736-7.047,0.736-10.667v-256C384,33.5,350.5,0,309.333,0H96
				C54.833,0,21.333,33.5,21.333,74.667v256c0,99.99,81.344,181.333,181.333,181.333c62.228,0,120.223-32.661,153.299-85.333H448
				c23.531,0,42.667-19.135,42.667-42.667S471.531,341.333,448,341.333z M202.667,490.667c-88.229,0-160-71.771-160-160v-256
				c0-29.406,23.927-53.333,53.333-53.333h213.333c29.406,0,53.333,23.927,53.333,53.333v256c0,3.62-0.466,7.116-0.743,10.667
				H260.792c-16.469-18.479-41.167-25.646-65.604-18.792c-21.01,5.896-38.135,23.323-43.635,44.406
				c-5.177,19.844-1.125,40.302,11.115,56.146C174.885,438.927,193.354,448,213.333,448c18.271,0,35.281-7.708,47.458-21.333h69.536
				C300.298,466.507,253.004,490.667,202.667,490.667z M448,405.333H255.76c-3.344,0-6.49,1.563-8.51,4.24
				c-16.417,21.698-51.396,21.615-67.708,0.479c-8.167-10.573-10.844-24.313-7.344-37.719c3.615-13.885,14.906-25.365,28.75-29.25
				c4.135-1.156,8.281-1.729,12.333-1.729c13.26,0,25.625,6.042,33.969,17.083c2.021,2.667,5.167,4.229,8.51,4.229H448
				c11.76,0,21.333,9.573,21.333,21.333C469.333,395.76,459.76,405.333,448,405.333z"/>
		</g>
	</g>
</g>
<g>
</g>
<g>
</g>
<g>
</g>
<g>
</g>
<g>
</g>
<g>
</g>
<g>
</g>
<g>
</g>
<g>
</g>
<g>
</g>
<g>
</g>
<g>
</g>
<g>
</g>
<g>
</g>
<g>
</g>
</svg>
