<?xml version="1.0" encoding="iso-8859-1"?>
<!-- Generator: Adobe Illustrator 19.0.0, SVG Export Plug-In . SVG Version: 6.00 Build 0)  -->
<svg xmlns="http://www.w3.org/2000/svg" xmlns:xlink="http://www.w3.org/1999/xlink" version="1.1" id="Layer_1" x="0px" y="0px" viewBox="0 0 512 512" style="enable-background:new 0 0 512 512;" xml:space="preserve" width="512" height="512">
<g>
	<path d="M31,0v512h450V0H31z M451,30v90H61V30H451z M61,482V150h390v332H61z"/>
	<rect x="91" y="60" width="30" height="30"/>
	<rect x="151" y="60" width="30" height="30"/>
	<rect x="211" y="60" width="30" height="30"/>
	<rect x="271" y="60" width="150" height="30"/>
	<path d="M256,182c-74.439,0-135,60.561-135,135c0,74.439,60.561,135,135,135s135-60.561,135-135C391,242.561,330.439,182,256,182z    M151,317c0-5.093,0.372-10.099,1.076-15H166c8.271,0,15,6.729,15,15s-6.729,15-15,15h-13.924C151.372,327.099,151,322.093,151,317   z M256,422c-41.802,0-77.973-24.557-94.855-60H166c9.254,0,17.862-2.81,25.022-7.618C203.994,376.841,228.252,392,256,392   c41.355,0,75-33.645,75-75c0-41.355-33.645-75-75-75c-27.748,0-52.006,15.159-64.978,37.618C183.862,274.81,175.254,272,166,272   h-4.855c16.882-35.443,53.053-60,94.855-60c57.897,0,105,47.103,105,105C361,374.897,313.897,422,256,422z M211,317   c0-24.813,20.187-45,45-45s45,20.187,45,45s-20.187,45-45,45S211,341.813,211,317z"/>
</g>















</svg>
