<?xml version="1.0"?>
<svg xmlns="http://www.w3.org/2000/svg" viewBox="0 0 64 64" width="512" height="512"><g id="outline"><path d="M35,56V42.414L39.414,38H47a3,3,0,0,0,0-6H35V18H61a1,1,0,0,0,.359-1.934l-26-10A1,1,0,0,0,35,6V5a3,3,0,0,0-6,0V6a1,1,0,0,0-.359.066l-26,10A1,1,0,0,0,3,18H29V32H17a3,3,0,0,0,0,6h7.586L29,42.414V56a3,3,0,0,0-3,3v2a1,1,0,0,0,1,1H37a1,1,0,0,0,1-1V59A3,3,0,0,0,35,56Zm0-16.414V38h1.586ZM31,5a1,1,0,0,1,2,0V6H31ZM29.186,8h5.628l20.8,8H8.386ZM31,18h2V32H31ZM16,35a1,1,0,0,1,1-1H47a1,1,0,0,1,0,2H17A1,1,0,0,1,16,35Zm11.414,3H29v1.586ZM31,38h2V56H31Zm5,22H28V59a1,1,0,0,1,1-1h6a1,1,0,0,1,1,1Z"/><path d="M16.047,52.678l5.729-7.047-.011-.009A.982.982,0,0,0,22,45a5.006,5.006,0,0,0-5-5H8V26a3,3,0,0,0-6,0V45a.982.982,0,0,0,.255.651l-.008.007,6.184,7.068L2.224,60.369A1,1,0,0,0,3,62H8a1,1,0,0,0,.776-.369l3.586-4.413,3.885,4.44A1,1,0,0,0,17,62h5a1,1,0,0,0,.753-1.658Zm-2.59-2.96L16.477,46H18.9l-4.187,5.151ZM10.2,46H13.9L12.12,48.19Zm9.625-2H4V42H17A3.006,3.006,0,0,1,19.829,44ZM4,26a1,1,0,0,1,2,0V40H4ZM7.524,60H5.1l4.667-5.747,1.257,1.437Zm9.93,0L5.2,46H7.546L19.8,60Z"/><path d="M59,23a3,3,0,0,0-3,3V40H47a5.006,5.006,0,0,0-5,5,.982.982,0,0,0,.235.622l-.011.009,5.726,7.048-6.7,7.663A1,1,0,0,0,42,62h5a1,1,0,0,0,.752-.341l3.889-4.438,3.583,4.41A1,1,0,0,0,56,62h5a1,1,0,0,0,.776-1.631l-6.21-7.643,6.187-7.068-.008-.007A.982.982,0,0,0,62,45V26A3,3,0,0,0,59,23Zm-1,3a1,1,0,0,1,2,0V40H58ZM47,42H60v2H44.171A3.006,3.006,0,0,1,47,42Zm3.1,4H53.8l-1.916,2.188ZM46.547,60H44.2l5.027-5.746,1.131,1.392Zm9.929,0L45.1,46h2.423L58.9,60ZM53.159,49.763,56.454,46H58.8l-4.509,5.151Z"/><rect x="27" y="11" width="2" height="2"/><rect x="23" y="12" width="2" height="2"/><rect x="31" y="12" width="2" height="2"/><rect x="35" y="11" width="2" height="2"/><rect x="39" y="12" width="2" height="2"/></g></svg>
