<svg height="480pt" viewBox="0 -88 480.0149 480" width="480pt" xmlns="http://www.w3.org/2000/svg"><path d="m460.425781 242.511719c17.328125-14.816407 23.929688-38.671875 16.683594-60.289063-7.25-21.617187-26.894531-36.671875-49.652344-38.046875 2.941407-4.882812 4.511719-10.46875 4.542969-16.167969-.011719-12.871093-7.722656-24.484374-19.574219-29.496093 17.777344-15.25 24.183594-39.957031 16.0625-61.925781-8.125-21.96875-29.0625-36.5625005-52.488281-36.5781255h-248c-34.464844-.046875-65.078125 22.0156255-75.933594 54.7304685-10.855468 32.710938.488282 68.699219 28.140625 89.269531h-.207031c-44.183594 0-80 35.816407-80 80 0 44.183594 35.816406 80 80 80h368c15.234375.007813 28.363281-10.730468 31.382812-25.664062 3.015626-14.933594-4.914062-29.925781-18.957031-35.832031zm-396.425781-162.503907c.039062-35.328124 28.671875-63.960937 64-64h248c22.089844 0 40 17.910157 40 40 0 22.089844-17.910156 40-40 40h-248c-8.835938 0-16-7.164062-16-16 0-8.835937 7.164062-16 16-16h248c4.417969 0 8-3.582031 8-8 0-4.417968-3.582031-8-8-8h-248c-17.671875 0-32 14.328126-32 32 0 17.671876 14.328125 32 32 32h272c8.835938 0 16 7.164063 16 16 0 8.835938-7.164062 16-16 16h-272c-35.328125-.039062-63.960938-28.671874-64-64zm384 208h-368c-35.347656 0-64-28.652343-64-64 0-35.347656 28.652344-64 64-64h344c22.089844 0 40 17.910157 40 40 0 22.089844-17.910156 40-40 40h-344c-8.835938 0-16-7.164062-16-16 0-8.835937 7.164062-16 16-16h344c4.417969 0 8-3.582031 8-8 0-4.417968-3.582031-8-8-8h-344c-17.671875 0-32 14.328126-32 32 0 17.671876 14.328125 32 32 32h368c8.835938 0 16 7.164063 16 16 0 8.835938-7.164062 16-16 16zm0 0"/></svg>